<svg width="146" height="37" viewBox="0 0 146 37" fill="none" xmlns="http://www.w3.org/2000/svg">
<path d="M73.6346 2.7593C73.4899 2.75277 73.4039 2.74514 73.3179 2.74514C71.3961 2.74442 69.474 2.74732 67.5523 2.74006C67.36 2.73933 67.2374 2.80178 67.1155 2.94555C63.8172 6.83524 60.5147 10.7209 57.2146 14.6088C57.1758 14.6546 57.1566 14.717 57.1279 14.7718L57.0467 14.7145V2.76075H51.6362V29.2662H57.0536V28.9528C57.0536 26.6036 57.0525 24.2543 57.0568 21.9054C57.0568 21.7986 57.0724 21.6628 57.1363 21.5891C58.1177 20.4622 59.1081 19.343 60.1167 18.1997C60.1838 18.2909 60.2331 18.3555 60.2799 18.4215C62.7778 21.9732 65.2757 25.5253 67.7725 29.0781C67.8596 29.2023 67.9354 29.2923 68.1193 29.2912C70.0988 29.2818 72.0782 29.2854 74.0573 29.2847C74.1164 29.2847 74.1756 29.2727 74.2626 29.2629C70.7322 24.1889 67.2214 19.1429 63.707 14.0911C67.0121 10.3183 70.3045 6.56005 73.6343 2.7593H73.6346Z" fill="#022A37"/>
<path d="M130.811 9.85912C130.706 9.84968 130.666 9.84315 130.626 9.84315C128.679 9.84242 126.732 9.84024 124.786 9.84932C124.683 9.84968 124.554 9.92265 124.482 10.0022C122.766 11.8947 121.057 13.7927 119.347 15.6897C118.853 16.2371 118.358 16.7839 117.864 17.331L117.8 17.3063V2.76843H112.663V29.272H117.818V28.9424C117.818 27.1598 117.821 25.3776 117.814 23.595C117.814 23.4066 117.871 23.2748 118.001 23.1427C118.652 22.4812 119.294 21.8107 119.94 21.1441C119.99 21.0929 120.044 21.0461 120.11 20.9836C120.169 21.0708 120.221 21.1426 120.268 21.2167C121.958 23.8376 123.648 26.4577 125.333 29.0814C125.427 29.2281 125.522 29.2916 125.703 29.2909C127.51 29.2833 129.317 29.2862 131.123 29.2862H131.384C128.802 25.2396 126.249 21.237 123.697 17.2355C126.068 14.777 128.423 12.3355 130.811 9.85949V9.85912Z" fill="#022A37"/>
<path d="M86.9666 9.83773C86.758 9.83664 86.6691 9.90163 86.6034 10.0991C85.3721 13.7971 84.1335 17.4926 82.8956 21.1884C82.7436 21.6426 82.5883 22.096 82.4145 22.6087C82.3634 22.4769 82.3326 22.4046 82.3072 22.3309C80.9089 18.2648 79.5092 14.199 78.1183 10.1303C78.0424 9.90816 77.9409 9.83519 77.7047 9.83701C76.1279 9.84863 74.5512 9.84281 72.9745 9.84281H72.6621C72.7046 9.96952 72.7303 10.0548 72.7615 10.1383C73.7708 12.8351 74.7809 15.5314 75.7902 18.2281C77.0433 21.5758 78.2953 24.9238 79.5517 28.2704C79.6126 28.4327 79.6232 28.5725 79.5517 28.7373C79.3231 29.2641 79.1123 29.7985 78.8918 30.3285C78.4985 31.2732 77.7863 31.7738 76.7668 31.8094C76.145 31.8312 75.5221 31.8134 74.8846 31.8134V35.9452C75.1509 35.9703 75.4107 36.0055 75.6715 36.0178C76.7803 36.0698 77.8875 36.0828 78.9799 35.8349C80.4228 35.507 81.6273 34.8067 82.5303 33.6094C83.2036 32.7159 83.7112 31.7357 84.1016 30.6941C86.6796 23.8176 89.2522 16.939 91.8259 10.061C91.8481 10.0018 91.8619 9.93902 91.8898 9.84318H91.5981C90.0544 9.84318 88.5103 9.84753 86.9666 9.83809V9.83773Z" fill="#022A37"/>
<path d="M105.049 23.4601C104.615 24.2468 103.966 24.8113 103.103 25.1079C102.511 25.3116 101.903 25.3603 101.283 25.3007C100.055 25.1827 99.0623 24.6469 98.3407 23.6361C97.7493 22.808 97.4453 21.8736 97.3241 20.8712C97.1525 19.4509 97.1906 18.0441 97.7145 16.6968C98.3403 15.0875 99.4421 14.0379 101.231 13.8284C102.921 13.6309 104.349 14.3396 105.145 15.8408C105.38 16.2844 105.538 16.7695 105.737 17.2509C107.171 16.576 108.622 15.8931 110.073 15.2098C110.066 15.1561 110.065 15.123 110.056 15.0925C109.675 13.8796 109.046 12.809 108.134 11.926C106.72 10.5552 105.018 9.77825 103.056 9.55606C101.312 9.35856 99.6156 9.52847 97.9735 10.1584C96.1646 10.8518 94.7573 12.0473 93.7041 13.6589C92.734 15.1434 92.2667 16.8065 92.1357 18.5546C91.9913 20.4765 92.2224 22.3553 93.0014 24.143C93.7864 25.9448 95.0185 27.3596 96.691 28.383C97.8661 29.1022 99.1642 29.4681 100.525 29.6224C101.809 29.768 103.088 29.7005 104.337 29.3727C105.788 28.9915 107.085 28.3093 108.164 27.2416C109.125 26.2911 109.79 25.1733 110.157 23.8456C108.673 23.1834 107.189 22.5216 105.754 21.8815C105.512 22.433 105.321 22.9685 105.05 23.4601H105.049Z" fill="#022A37"/>
<path d="M138.582 12.5321V9.86184H133.428V29.274H138.591V28.9654C138.591 25.828 138.591 22.6905 138.591 19.553C138.591 18.8927 138.664 18.2432 138.885 17.6158C139.271 16.5198 140.011 15.7432 141.045 15.2422C141.894 14.8316 142.803 14.7307 143.732 14.771C144.155 14.7891 144.577 14.8178 145.007 14.8421V9.79758C142.378 9.54127 140.108 10.0858 138.581 12.5321H138.582Z" fill="#022A37"/>
<path d="M26.7927 33.2027L19.0654 25.0544H29.2822L37.0219 33.2027H26.7927Z" fill="#0CF191"/>
<path d="M27.6459 0.258911L8.06162 21.1407L8.08701 13.4844L0.799081 5.82334L0.760261 28.495C0.756996 30.3229 1.84213 31.9367 3.52516 32.6058C4.04106 32.8109 4.58091 32.9147 5.12946 32.9147C6.31256 32.9147 7.46154 32.4137 8.28256 31.5398L37.7263 0.258545H27.6456L27.6459 0.258911Z" fill="#022A37"/>
</svg>
